<svg width="16" height="16" viewBox="0 0 16 16" fill="none" xmlns="http://www.w3.org/2000/svg">
<g clip-path="url(#clip0_204_18)">
<path fill-rule="evenodd" clip-rule="evenodd" d="M8.75434 3.42101C9.1709 3.00445 9.1709 2.32908 8.75434 1.91252C8.33779 1.49596 7.66241 1.49596 7.24585 1.91252L1.96691 7.19146C1.74216 7.38702 1.6001 7.67515 1.6001 7.99645C1.6001 7.99706 1.6001 7.99767 1.6001 7.99828C1.59964 8.27187 1.70378 8.5456 1.91252 8.75434L7.24585 14.0877C7.66241 14.5042 8.33779 14.5042 8.75434 14.0877C9.1709 13.6711 9.1709 12.9957 8.75434 12.5792L5.23828 9.06312H13.3334C13.9225 9.06312 14.4001 8.58556 14.4001 7.99645C14.4001 7.40735 13.9225 6.92979 13.3334 6.92979H5.24557L8.75434 3.42101Z" fill="#717171"/>
</g>
<defs>
<clipPath id="clip0_204_18">
<rect width="16" height="16" fill="white"/>
</clipPath>
</defs>
</svg>
