<svg width="14" height="14" viewBox="0 0 14 14" fill="none" xmlns="http://www.w3.org/2000/svg">
<path fill-rule="evenodd" clip-rule="evenodd" d="M13.7668 13.7668C13.4559 14.0777 12.9519 14.0777 12.641 13.7668L0.233172 1.35902C-0.0777233 1.04813 -0.0777233 0.544067 0.233172 0.233172C0.544068 -0.0777238 1.04813 -0.0777239 1.35902 0.233171L13.7668 12.641C14.0777 12.9519 14.0777 13.4559 13.7668 13.7668Z" fill="white"/>
<path fill-rule="evenodd" clip-rule="evenodd" d="M0.233171 13.7668C-0.0777244 13.4559 -0.0777235 12.9519 0.233172 12.641L12.641 0.233172C12.9519 -0.0777235 13.4559 -0.0777235 13.7668 0.233172C14.0777 0.544067 14.0777 1.04813 13.7668 1.35902L1.35902 13.7668C1.04813 14.0777 0.544067 14.0777 0.233171 13.7668Z" fill="white"/>
</svg>
