<svg width="20" height="21" viewBox="0 0 20 21" fill="none" xmlns="http://www.w3.org/2000/svg">
<g clip-path="url(#clip0_58_504)">
<path d="M19.2675 8.03969L12.9467 1.71802C12.1644 0.938013 11.1047 0.5 10 0.5C8.89529 0.5 7.83564 0.938013 7.05334 1.71802L0.73251 8.03969C0.499531 8.27118 0.314818 8.5466 0.189079 8.85001C0.0633394 9.15341 -0.000925334 9.47876 1.00662e-05 9.80719V17.988C1.00662e-05 18.6511 0.263402 19.2869 0.732243 19.7558C1.20108 20.2246 1.83697 20.488 2.50001 20.488H17.5C18.1631 20.488 18.7989 20.2246 19.2678 19.7558C19.7366 19.2869 20 18.6511 20 17.988V9.80719C20.0009 9.47876 19.9367 9.15341 19.8109 8.85001C19.6852 8.5466 19.5005 8.27118 19.2675 8.03969ZM12.5 18.8214H7.50001V15.543C7.50001 14.88 7.7634 14.2441 8.23224 13.7753C8.70108 13.3064 9.33697 13.043 10 13.043C10.6631 13.043 11.2989 13.3064 11.7678 13.7753C12.2366 14.2441 12.5 14.88 12.5 15.543V18.8214ZM18.3333 17.988C18.3333 18.209 18.2455 18.421 18.0893 18.5773C17.933 18.7336 17.721 18.8214 17.5 18.8214H14.1667V15.543C14.1667 14.438 13.7277 13.3781 12.9463 12.5967C12.1649 11.8153 11.1051 11.3764 10 11.3764C8.89494 11.3764 7.83513 11.8153 7.05373 12.5967C6.27233 13.3781 5.83334 14.438 5.83334 15.543V18.8214H2.50001C2.279 18.8214 2.06703 18.7336 1.91075 18.5773C1.75447 18.421 1.66668 18.209 1.66668 17.988V9.80719C1.66745 9.58634 1.75517 9.37468 1.91084 9.21802L8.23168 2.89885C8.70143 2.4313 9.33723 2.16881 10 2.16881C10.6628 2.16881 11.2986 2.4313 11.7683 2.89885L18.0892 9.22052C18.2442 9.37656 18.3319 9.5872 18.3333 9.80719V17.988Z" fill="#717171"/>
</g>
<defs>
<clipPath id="clip0_58_504">
<rect width="20" height="20" fill="white" transform="translate(0 0.5)"/>
</clipPath>
</defs>
</svg>
