<svg width="20" height="21" viewBox="0 0 20 21" fill="none" xmlns="http://www.w3.org/2000/svg">
<g clip-path="url(#clip0_29_77)">
<path d="M19.2675 8.05727L12.9467 1.7356C12.1644 0.955591 11.1047 0.517578 10 0.517578C8.89529 0.517578 7.83564 0.955591 7.05334 1.7356L0.73251 8.05727C0.499531 8.28875 0.314818 8.56418 0.189079 8.86759C0.0633394 9.17099 -0.000925334 9.49634 1.00662e-05 9.82477V18.0056C1.00662e-05 18.6686 0.263402 19.3045 0.732243 19.7734C1.20108 20.2422 1.83697 20.5056 2.50001 20.5056H17.5C18.1631 20.5056 18.7989 20.2422 19.2678 19.7734C19.7366 19.3045 20 18.6686 20 18.0056V9.82477C20.0009 9.49634 19.9367 9.17099 19.8109 8.86759C19.6852 8.56418 19.5005 8.28875 19.2675 8.05727ZM12.5 18.8389H7.50001V15.5606C7.50001 14.8976 7.7634 14.2617 8.23224 13.7928C8.70108 13.324 9.33697 13.0606 10 13.0606C10.6631 13.0606 11.2989 13.324 11.7678 13.7928C12.2366 14.2617 12.5 14.8976 12.5 15.5606V18.8389ZM18.3333 18.0056C18.3333 18.2266 18.2455 18.4386 18.0893 18.5949C17.933 18.7511 17.721 18.8389 17.5 18.8389H14.1667V15.5606C14.1667 14.4555 13.7277 13.3957 12.9463 12.6143C12.1649 11.8329 11.1051 11.3939 10 11.3939C8.89494 11.3939 7.83513 11.8329 7.05373 12.6143C6.27233 13.3957 5.83334 14.4555 5.83334 15.5606V18.8389H2.50001C2.279 18.8389 2.06703 18.7511 1.91075 18.5949C1.75447 18.4386 1.66668 18.2266 1.66668 18.0056V9.82477C1.66745 9.60392 1.75517 9.39225 1.91084 9.2356L8.23168 2.91643C8.70143 2.44887 9.33723 2.18639 10 2.18639C10.6628 2.18639 11.2986 2.44887 11.7683 2.91643L18.0892 9.2381C18.2442 9.39414 18.3319 9.60478 18.3333 9.82477V18.0056Z" fill="#16036F"/>
</g>
<defs>
<clipPath id="clip0_29_77">
<rect width="20" height="20" fill="white" transform="translate(0 0.5)"/>
</clipPath>
</defs>
</svg>
