<svg width="6" height="11" viewBox="0 0 6 11" fill="none" xmlns="http://www.w3.org/2000/svg">
<g clip-path="url(#clip0_42_1789)">
<path d="M5.62248 3.44609C5.42002 3.24735 5.1474 3.13638 4.86369 3.13724L1.58833 3.13343C1.44587 3.13385 1.30937 3.19063 1.20863 3.29137C1.1079 3.3921 1.05112 3.5286 1.0507 3.67106C1.05041 3.74225 1.06421 3.81278 1.09132 3.87861C1.11843 3.94443 1.1583 4.00423 1.20863 4.05457C1.25897 4.10491 1.31877 4.14478 1.3846 4.17189C1.45042 4.19899 1.52096 4.2128 1.59214 4.21251L4.09728 4.20869L0.284285 8.02169C0.183158 8.12281 0.126346 8.25997 0.126346 8.40299C0.126346 8.546 0.183158 8.68316 0.284285 8.78429C0.385412 8.88541 0.52257 8.94222 0.665585 8.94222C0.8086 8.94222 0.945757 8.88541 1.04688 8.78429L4.85988 4.97129L4.85988 7.48024C4.85937 7.62334 4.91573 7.76077 5.01656 7.86231C5.11738 7.96385 5.25442 8.02118 5.39751 8.02169C5.5406 8.02219 5.67804 7.96583 5.77958 7.86501C5.88112 7.76418 5.93845 7.62715 5.93895 7.48405L5.93514 4.20869C5.936 3.92312 5.82355 3.64887 5.62248 3.44609Z" fill="#16036F"/>
</g>
<defs>
<clipPath id="clip0_42_1789">
<rect width="6" height="10" fill="white" transform="translate(0 0.355713)"/>
</clipPath>
</defs>
</svg>
