<svg width="138" height="30" viewBox="0 0 138 30" fill="none" xmlns="http://www.w3.org/2000/svg">
<path d="M14.3604 12.4707C18.2432 12.4707 21.0117 13.0996 22.666 14.3574C24.3203 15.6016 25.1475 17.4609 25.1475 19.9355C25.1475 22.8887 24.0605 25.1582 21.8867 26.7441C19.7266 28.3301 16.582 29.123 12.4531 29.123C11.6602 29.123 10.7578 29.1025 9.74609 29.0615C8.74805 29.0205 7.66113 29 6.48535 29C4.62598 29 2.75977 29.0205 0.886719 29.0615L0.804688 28.0361L3.53223 27.2773C3.8877 27.168 4.07227 26.9561 4.08594 26.6416C4.09961 26.0947 4.10645 25.4795 4.10645 24.7959C4.12012 24.1123 4.12695 23.3604 4.12695 22.54V6.21582C4.12695 5.53223 4.12012 4.91016 4.10645 4.34961C4.10645 3.78906 4.09961 3.27637 4.08594 2.81152C4.07227 2.45605 3.9082 2.23047 3.59375 2.13477L0.845703 1.33496L0.78418 0.289062C2.69824 0.34375 4.5166 0.371094 6.23926 0.371094H12.1865C15.5361 0.371094 18.9951 0.34375 22.5635 0.289062L22.707 0.453125L21.3125 7.91797L20.2666 8.08203L18.7285 2.46289H10.2383V12.6348C11.6602 12.5254 13.0342 12.4707 14.3604 12.4707ZM10.2383 27.0107C11.1406 27.1748 12.002 27.2568 12.8223 27.2568C14.8184 27.2568 16.2539 26.7168 17.1289 25.6367C18.0176 24.543 18.4619 22.916 18.4619 20.7559C18.4619 18.6094 18.0449 17.0234 17.2109 15.998C16.3906 14.9727 14.9004 14.46 12.7402 14.46C12.043 14.46 11.209 14.5146 10.2383 14.624V27.0107Z" fill="url(#paint0_linear_196_60)"/>
<path d="M38.6121 19.874C36.4656 19.874 34.9343 20.1475 34.0183 20.6943C33.1023 21.2412 32.6443 22.1777 32.6443 23.5039C32.6443 24.707 32.9656 25.5684 33.6082 26.0879C34.2644 26.5938 35.0369 26.8467 35.9255 26.8467C36.9373 26.8467 37.8191 26.5869 38.5711 26.0674L38.6121 19.874ZM28.5837 11.4043C31.4959 10.0781 34.2986 9.41504 36.992 9.41504C39.4529 9.41504 41.2918 9.96875 42.5086 11.0762C43.739 12.1699 44.3474 13.749 44.3337 15.8135L44.2312 24.3447C44.2039 25.042 44.2175 25.6025 44.2722 26.0264C44.3269 26.4502 44.45 26.7783 44.6414 27.0107C44.8464 27.2295 45.1404 27.3867 45.5232 27.4824C45.9197 27.5781 46.4871 27.6328 47.2253 27.6465L47.3484 28.5898C45.4343 29.2461 43.7869 29.5742 42.406 29.5742C40.5466 29.5742 39.323 28.8428 38.7351 27.3799C36.9988 28.8428 35.1599 29.5742 33.2185 29.5742C31.3181 29.5742 29.7527 29.1025 28.5222 28.1592C27.2918 27.2021 26.6765 25.8623 26.6765 24.1396C26.6765 21.9932 27.6677 20.4209 29.6502 19.4229C31.6462 18.4248 34.6336 17.9258 38.6121 17.9258L38.6326 16.3877C38.6462 14.9248 38.2908 13.8516 37.5662 13.168C36.8552 12.4707 35.741 12.1221 34.2234 12.1221C32.8152 12.1221 31.1267 12.4297 29.158 13.0449L28.5837 11.4043Z" fill="url(#paint1_linear_196_60)"/>
<path d="M67.8882 14.8906V23.2578C67.8882 24.0781 67.8882 24.7686 67.8882 25.3291C67.9019 25.8896 67.9155 26.334 67.9292 26.6621C67.9429 27.0312 68.1138 27.2637 68.4419 27.3594L71.0054 28.0771L71.0669 29.0615C69.0435 29.0205 67.0337 29 65.0376 29C63.0142 29 61.1616 29.0205 59.48 29.0615L59.3775 28.0771L61.5513 27.4619C61.8794 27.3525 62.0503 27.1475 62.064 26.8467C62.0777 26.5732 62.0845 26.2178 62.0845 25.7803C62.0982 25.3428 62.105 24.8027 62.105 24.1602V11.958H58.065C57.9419 15.0205 57.6138 17.8438 57.0806 20.4277C56.5611 23.0117 55.8775 25.2949 55.0298 27.2773C54.8247 27.7695 54.5855 28.1455 54.312 28.4053C54.0386 28.665 53.731 28.8564 53.3892 28.9795C53.0474 29.1025 52.6714 29.1777 52.2612 29.2051C51.8648 29.2324 51.4341 29.2529 50.9693 29.2666C49.8208 29.2666 48.5493 29.1572 47.1548 28.9385L47.0523 27.8721C47.7905 27.79 48.4058 27.6602 48.898 27.4824C49.4038 27.291 49.814 27.0928 50.1284 26.8877C50.8394 26.4502 51.5093 25.7871 52.1382 24.8984C52.7808 23.9961 53.3482 22.9229 53.8404 21.6787C54.3462 20.4346 54.7632 19.0264 55.0913 17.4541C55.4195 15.8818 55.6382 14.1865 55.7476 12.3682C55.7886 11.9854 55.604 11.7393 55.1939 11.6299L52.4048 10.8711L52.3228 9.88672C54.4556 9.92773 56.3423 9.94824 57.9829 9.94824H65.4683C67.1226 9.94824 68.9409 9.92773 70.9234 9.88672L71.0259 10.8711L68.4419 11.5889C68.1138 11.6982 67.9429 11.9033 67.9292 12.2041C67.9155 12.4775 67.9019 12.833 67.8882 13.2705C67.8882 13.708 67.8882 14.248 67.8882 14.8906Z" fill="url(#paint2_linear_196_60)"/>
<path d="M83.8753 19.874C81.7288 19.874 80.1975 20.1475 79.2815 20.6943C78.3655 21.2412 77.9075 22.1777 77.9075 23.5039C77.9075 24.707 78.2288 25.5684 78.8714 26.0879C79.5276 26.5938 80.3001 26.8467 81.1888 26.8467C82.2005 26.8467 83.0823 26.5869 83.8343 26.0674L83.8753 19.874ZM73.847 11.4043C76.7591 10.0781 79.5618 9.41504 82.2552 9.41504C84.7161 9.41504 86.555 9.96875 87.7718 11.0762C89.0022 12.1699 89.6106 13.749 89.597 15.8135L89.4944 24.3447C89.4671 25.042 89.4807 25.6025 89.5354 26.0264C89.5901 26.4502 89.7132 26.7783 89.9046 27.0107C90.1096 27.2295 90.4036 27.3867 90.7864 27.4824C91.1829 27.5781 91.7503 27.6328 92.4886 27.6465L92.6116 28.5898C90.6975 29.2461 89.0501 29.5742 87.6692 29.5742C85.8098 29.5742 84.5862 28.8428 83.9983 27.3799C82.262 28.8428 80.4231 29.5742 78.4817 29.5742C76.5813 29.5742 75.0159 29.1025 73.7854 28.1592C72.555 27.2021 71.9397 25.8623 71.9397 24.1396C71.9397 21.9932 72.9309 20.4209 74.9134 19.4229C76.9095 18.4248 79.8968 17.9258 83.8753 17.9258L83.8958 16.3877C83.9095 14.9248 83.554 13.8516 82.8294 13.168C82.1184 12.4707 81.0042 12.1221 79.4866 12.1221C78.0784 12.1221 76.3899 12.4297 74.4212 13.0449L73.847 11.4043Z" fill="url(#paint3_linear_196_60)"/>
<path d="M115.387 26.6621C115.414 27.0312 115.585 27.2637 115.899 27.3594L118.463 28.0771L118.524 29.0615C116.501 29.0205 114.491 29 112.495 29C110.485 29 108.667 29.0205 107.04 29.0615L106.938 28.0771L109.009 27.4619C109.323 27.3662 109.494 27.1611 109.522 26.8467C109.549 26.3135 109.563 25.418 109.563 24.1602V19.8945H102.098V23.3604C102.098 25.001 102.111 26.1357 102.139 26.7646C102.166 27.1338 102.337 27.3662 102.651 27.4619L104.682 28.0771L104.743 29.0615C103.075 29.0205 101.257 29 99.2881 29C97.251 29 95.2412 29.0205 93.2588 29.0615L93.1563 28.0771L95.7608 27.3594C96.0752 27.2637 96.2461 27.0586 96.2735 26.7441C96.3008 26.2109 96.3145 25.3154 96.3145 24.0576V15.6699C96.3145 14.043 96.3008 12.915 96.2735 12.2861C96.2461 11.917 96.0752 11.6846 95.7608 11.5889L93.1768 10.8711L93.1153 9.88672C95.1387 9.92773 97.1485 9.94824 99.1446 9.94824C101.154 9.94824 102.973 9.92773 104.6 9.88672L104.702 10.8711L102.651 11.4658C102.337 11.5752 102.166 11.7871 102.139 12.1016C102.111 12.6348 102.098 13.5303 102.098 14.7881V17.9463H109.563V15.5879C109.563 13.9473 109.549 12.8125 109.522 12.1836C109.494 11.8145 109.323 11.5752 109.009 11.4658L106.958 10.8711L106.897 9.88672C108.564 9.92773 110.383 9.94824 112.352 9.94824C114.389 9.94824 116.398 9.92773 118.381 9.88672L118.483 10.8711L115.899 11.5889C115.585 11.6846 115.414 11.8896 115.387 12.2041C115.359 12.7373 115.346 13.6328 115.346 14.8906V23.2578C115.346 24.8848 115.359 26.0195 115.387 26.6621Z" fill="url(#paint4_linear_196_60)"/>
<path d="M137.198 27.6465C134.929 28.9316 132.584 29.5742 130.164 29.5742C127.17 29.5742 124.709 28.7061 122.781 26.9697C120.853 25.2334 119.889 22.916 119.889 20.0176C119.889 16.8594 120.935 14.3027 123.027 12.3477C125.133 10.3926 127.812 9.41504 131.066 9.41504C133.131 9.41504 135.12 9.80469 137.034 10.584C136.542 12.5117 136.111 14.5352 135.742 16.6543L134.614 16.8389L133.035 11.7119C132.666 11.5752 132.167 11.5068 131.538 11.5068C129.979 11.5068 128.701 12.1904 127.703 13.5576C126.705 14.9111 126.206 16.7295 126.206 19.0127C126.206 21.6787 126.835 23.6475 128.093 24.9189C129.364 26.1768 131.169 26.8057 133.507 26.8057C134.628 26.8057 135.804 26.6758 137.034 26.416L137.198 27.6465Z" fill="url(#paint5_linear_196_60)"/>
<defs>
<linearGradient id="paint0_linear_196_60" x1="69" y1="-12" x2="69" y2="48" gradientUnits="userSpaceOnUse">
<stop stop-color="#201168"/>
<stop offset="1" stop-color="#3319B1"/>
</linearGradient>
<linearGradient id="paint1_linear_196_60" x1="69" y1="-12" x2="69" y2="48" gradientUnits="userSpaceOnUse">
<stop stop-color="#201168"/>
<stop offset="1" stop-color="#3319B1"/>
</linearGradient>
<linearGradient id="paint2_linear_196_60" x1="69" y1="-12" x2="69" y2="48" gradientUnits="userSpaceOnUse">
<stop stop-color="#201168"/>
<stop offset="1" stop-color="#3319B1"/>
</linearGradient>
<linearGradient id="paint3_linear_196_60" x1="69" y1="-12" x2="69" y2="48" gradientUnits="userSpaceOnUse">
<stop stop-color="#201168"/>
<stop offset="1" stop-color="#3319B1"/>
</linearGradient>
<linearGradient id="paint4_linear_196_60" x1="69" y1="-12" x2="69" y2="48" gradientUnits="userSpaceOnUse">
<stop stop-color="#201168"/>
<stop offset="1" stop-color="#3319B1"/>
</linearGradient>
<linearGradient id="paint5_linear_196_60" x1="69" y1="-12" x2="69" y2="48" gradientUnits="userSpaceOnUse">
<stop stop-color="#201168"/>
<stop offset="1" stop-color="#3319B1"/>
</linearGradient>
</defs>
</svg>
