<svg width="20" height="21" viewBox="0 0 20 21" fill="none" xmlns="http://www.w3.org/2000/svg">
<g clip-path="url(#clip0_29_81)">
<path d="M19.3827 14L17.216 6.19081C16.7533 4.52033 15.7452 3.0526 14.3521 2.02122C12.9589 0.989841 11.2608 0.454084 9.52806 0.499217C7.79528 0.54435 6.12738 1.16778 4.78983 2.27028C3.45227 3.37279 2.52192 4.89101 2.14684 6.58331L0.471007 14.125C0.389918 14.4904 0.391896 14.8693 0.476795 15.2338C0.561694 15.5983 0.727348 15.9391 0.961536 16.231C1.19572 16.5229 1.49247 16.7586 1.82988 16.9205C2.16729 17.0824 2.53675 17.1666 2.91101 17.1666H5.91684C6.1081 18.1086 6.61911 18.9554 7.36329 19.5636C8.10747 20.1719 9.03904 20.5042 10.0002 20.5042C10.9613 20.5042 11.8929 20.1719 12.6371 19.5636C13.3812 18.9554 13.8922 18.1086 14.0835 17.1666H16.9752C17.3603 17.1665 17.7401 17.0773 18.0851 16.9062C18.43 16.7351 18.7308 16.4865 18.9639 16.18C19.1971 15.8735 19.3562 15.5173 19.429 15.1391C19.5018 14.761 19.4854 14.3711 19.3827 14ZM10.0002 18.8333C9.48496 18.8312 8.98298 18.6699 8.56292 18.3716C8.14287 18.0732 7.82524 17.6524 7.65351 17.1666H12.3468C12.1751 17.6524 11.8575 18.0732 11.4374 18.3716C11.0174 18.6699 10.5154 18.8312 10.0002 18.8333ZM17.6377 15.1708C17.5599 15.2739 17.4592 15.3573 17.3434 15.4145C17.2276 15.4716 17.1001 15.5009 16.971 15.5H2.91101C2.78622 15.5 2.66304 15.4719 2.55055 15.4179C2.43805 15.3639 2.33912 15.2854 2.26105 15.188C2.18298 15.0907 2.12777 14.977 2.0995 14.8555C2.07122 14.734 2.0706 14.6076 2.09767 14.4858L3.77351 6.94415C4.0688 5.61599 4.7996 4.42465 5.84972 3.55952C6.89984 2.69439 8.20903 2.20512 9.56915 2.16949C10.9293 2.13386 12.2623 2.55391 13.3563 3.36287C14.4502 4.17183 15.2424 5.32327 15.6068 6.63415L17.7735 14.4433C17.8089 14.5668 17.815 14.6968 17.7915 14.8231C17.7679 14.9494 17.7152 15.0684 17.6377 15.1708Z" fill="#717171"/>
</g>
<defs>
<clipPath id="clip0_29_81">
<rect width="20" height="20" fill="white" transform="translate(0 0.5)"/>
</clipPath>
</defs>
</svg>
