<svg width="13" height="12" viewBox="0 0 13 12" fill="none" xmlns="http://www.w3.org/2000/svg">
<g clip-path="url(#clip0_204_417)">
<path d="M3.6745 5.5H2C1.86739 5.5 1.74021 5.55268 1.64645 5.64645C1.55268 5.74022 1.5 5.86739 1.5 6V7.5H0.5V6C0.5 5.60218 0.658035 5.22065 0.93934 4.93934C1.22064 4.65804 1.60218 4.5 2 4.5H4.2685C4.00692 4.79122 3.8051 5.13098 3.6745 5.5ZM11 4.5H8.7315C8.99308 4.79122 9.1949 5.13098 9.3255 5.5H11C11.1326 5.5 11.2598 5.55268 11.3536 5.64645C11.4473 5.74022 11.5 5.86739 11.5 6V7.5H12.5V6C12.5 5.60218 12.342 5.22065 12.0607 4.93934C11.7794 4.65804 11.3978 4.5 11 4.5ZM8.5 6.5C8.5 6.10444 8.3827 5.71776 8.16294 5.38886C7.94318 5.05996 7.63082 4.80362 7.26537 4.65224C6.89991 4.50087 6.49778 4.46126 6.10982 4.53843C5.72186 4.6156 5.36549 4.80608 5.08579 5.08579C4.80608 5.36549 4.6156 5.72186 4.53843 6.10982C4.46126 6.49778 4.50087 6.89992 4.65224 7.26537C4.80362 7.63082 5.05996 7.94318 5.38886 8.16294C5.71776 8.3827 6.10444 8.5 6.5 8.5C7.03043 8.5 7.53914 8.28929 7.91421 7.91422C8.28929 7.53914 8.5 7.03043 8.5 6.5ZM7.5 6.5C7.5 6.69778 7.44135 6.89112 7.33147 7.05557C7.22159 7.22002 7.06541 7.34819 6.88268 7.42388C6.69996 7.49957 6.49889 7.51937 6.30491 7.48079C6.11093 7.4422 5.93275 7.34696 5.79289 7.20711C5.65304 7.06726 5.5578 6.88907 5.51921 6.69509C5.48063 6.50111 5.50043 6.30004 5.57612 6.11732C5.65181 5.93459 5.77998 5.77841 5.94443 5.66853C6.10888 5.55865 6.30222 5.5 6.5 5.5C6.76522 5.5 7.01957 5.60536 7.20711 5.79289C7.39464 5.98043 7.5 6.23479 7.5 6.5ZM9.5 10.5C9.5 10.1022 9.34196 9.72065 9.06066 9.43934C8.77936 9.15804 8.39782 9 8 9H5C4.60218 9 4.22064 9.15804 3.93934 9.43934C3.65804 9.72065 3.5 10.1022 3.5 10.5V12H4.5V10.5C4.5 10.3674 4.55268 10.2402 4.64645 10.1464C4.74021 10.0527 4.86739 10 5 10H8C8.13261 10 8.25979 10.0527 8.35355 10.1464C8.44732 10.2402 8.5 10.3674 8.5 10.5V12H9.5V10.5ZM11.5 2C11.5 1.60444 11.3827 1.21776 11.1629 0.888861C10.9432 0.559962 10.6308 0.303617 10.2654 0.152242C9.89991 0.000866562 9.49778 -0.0387401 9.10982 0.0384303C8.72186 0.115601 8.36549 0.306082 8.08579 0.585787C7.80608 0.865492 7.6156 1.22186 7.53843 1.60982C7.46126 1.99778 7.50087 2.39992 7.65224 2.76537C7.80362 3.13082 8.05996 3.44318 8.38886 3.66294C8.71776 3.8827 9.10444 4 9.5 4C10.0304 4 10.5391 3.78929 10.9142 3.41422C11.2893 3.03914 11.5 2.53043 11.5 2ZM10.5 2C10.5 2.19778 10.4414 2.39112 10.3315 2.55557C10.2216 2.72002 10.0654 2.84819 9.88268 2.92388C9.69996 2.99957 9.49889 3.01937 9.30491 2.98079C9.11093 2.9422 8.93275 2.84696 8.79289 2.70711C8.65304 2.56726 8.5578 2.38907 8.51921 2.19509C8.48063 2.00111 8.50043 1.80004 8.57612 1.61732C8.65181 1.43459 8.77998 1.27841 8.94443 1.16853C9.10888 1.05865 9.30222 1 9.5 1C9.76522 1 10.0196 1.10536 10.2071 1.29289C10.3946 1.48043 10.5 1.73478 10.5 2ZM5.5 2C5.5 1.60444 5.3827 1.21776 5.16294 0.888861C4.94318 0.559962 4.63082 0.303617 4.26537 0.152242C3.89991 0.000866562 3.49778 -0.0387401 3.10982 0.0384303C2.72186 0.115601 2.36549 0.306082 2.08579 0.585787C1.80608 0.865492 1.6156 1.22186 1.53843 1.60982C1.46126 1.99778 1.50087 2.39992 1.65224 2.76537C1.80362 3.13082 2.05996 3.44318 2.38886 3.66294C2.71776 3.8827 3.10444 4 3.5 4C4.03043 4 4.53914 3.78929 4.91421 3.41422C5.28929 3.03914 5.5 2.53043 5.5 2ZM4.5 2C4.5 2.19778 4.44135 2.39112 4.33147 2.55557C4.22159 2.72002 4.06541 2.84819 3.88268 2.92388C3.69996 2.99957 3.49889 3.01937 3.30491 2.98079C3.11093 2.9422 2.93275 2.84696 2.79289 2.70711C2.65304 2.56726 2.5578 2.38907 2.51921 2.19509C2.48063 2.00111 2.50043 1.80004 2.57612 1.61732C2.65181 1.43459 2.77998 1.27841 2.94443 1.16853C3.10888 1.05865 3.30222 1 3.5 1C3.76522 1 4.01957 1.10536 4.20711 1.29289C4.39464 1.48043 4.5 1.73478 4.5 2Z" fill="#717171"/>
</g>
<defs>
<clipPath id="clip0_204_417">
<rect width="12" height="12" fill="white" transform="translate(0.5)"/>
</clipPath>
</defs>
</svg>
