<svg width="15" height="14" viewBox="0 0 15 14" fill="none" xmlns="http://www.w3.org/2000/svg">
<path d="M14.3014 6.41667H8.4681V0.583333C8.4681 0.428624 8.40664 0.280251 8.29724 0.170854C8.18785 0.0614582 8.03947 0 7.88477 0C7.73006 0 7.58168 0.0614582 7.47229 0.170854C7.36289 0.280251 7.30143 0.428624 7.30143 0.583333V6.41667H1.4681C1.31339 6.41667 1.16502 6.47812 1.05562 6.58752C0.946224 6.69692 0.884766 6.84529 0.884766 7C0.884766 7.15471 0.946224 7.30308 1.05562 7.41248C1.16502 7.52187 1.31339 7.58333 1.4681 7.58333H7.30143V13.4167C7.30143 13.5714 7.36289 13.7197 7.47229 13.8291C7.58168 13.9385 7.73006 14 7.88477 14C8.03947 14 8.18785 13.9385 8.29724 13.8291C8.40664 13.7197 8.4681 13.5714 8.4681 13.4167V7.58333H14.3014C14.4561 7.58333 14.6045 7.52187 14.7139 7.41248C14.8233 7.30308 14.8848 7.15471 14.8848 7C14.8848 6.84529 14.8233 6.69692 14.7139 6.58752C14.6045 6.47812 14.4561 6.41667 14.3014 6.41667Z" fill="#717171"/>
</svg>
