<svg width="20" height="21" viewBox="0 0 20 21" fill="none" xmlns="http://www.w3.org/2000/svg">
<g clip-path="url(#clip0_58_515)">
<path d="M17.5 20.4998H15.8333V16.2973C15.8327 15.644 15.5728 15.0176 15.1109 14.5556C14.6489 14.0937 14.0225 13.8338 13.3692 13.8332H6.63083C5.9775 13.8338 5.35111 14.0937 4.88914 14.5556C4.42716 15.0176 4.16733 15.644 4.16667 16.2973V20.4998H2.5V16.2973C2.50132 15.2022 2.93696 14.1523 3.71135 13.3779C4.48575 12.6035 5.53567 12.1678 6.63083 12.1665H13.3692C14.4643 12.1678 15.5143 12.6035 16.2886 13.3779C17.063 14.1523 17.4987 15.2022 17.5 16.2973V20.4998Z" fill="#16036F"/>
<path d="M10 10.5C9.0111 10.5 8.0444 10.2068 7.22215 9.65735C6.39991 9.10794 5.75904 8.32705 5.3806 7.41342C5.00217 6.49979 4.90315 5.49446 5.09608 4.52455C5.289 3.55465 5.76521 2.66373 6.46447 1.96447C7.16373 1.26521 8.05465 0.789002 9.02455 0.596076C9.99446 0.40315 10.9998 0.502166 11.9134 0.880605C12.8271 1.25904 13.6079 1.89991 14.1574 2.72215C14.7068 3.5444 15 4.5111 15 5.5C14.9987 6.82568 14.4715 8.09668 13.5341 9.03407C12.5967 9.97147 11.3257 10.4987 10 10.5ZM10 2.16667C9.34073 2.16667 8.69627 2.36217 8.1481 2.72844C7.59994 3.09471 7.1727 3.6153 6.9204 4.22439C6.66811 4.83348 6.6021 5.5037 6.73072 6.1503C6.85934 6.79691 7.1768 7.39085 7.64298 7.85703C8.10915 8.3232 8.7031 8.64067 9.3497 8.76929C9.9963 8.8979 10.6665 8.83189 11.2756 8.5796C11.8847 8.32731 12.4053 7.90007 12.7716 7.3519C13.1378 6.80374 13.3333 6.15927 13.3333 5.5C13.3333 4.61595 12.9821 3.7681 12.357 3.14298C11.7319 2.51786 10.8841 2.16667 10 2.16667Z" fill="#16036F"/>
</g>
<defs>
<clipPath id="clip0_58_515">
<rect width="20" height="20" fill="white" transform="translate(0 0.5)"/>
</clipPath>
</defs>
</svg>
