<svg width="60" height="60" viewBox="0 0 60 60" fill="none" xmlns="http://www.w3.org/2000/svg">
<path d="M30 3.1875C26.4786 3.18627 22.9914 3.87895 19.7378 5.22597C16.4842 6.57299 13.528 8.54794 11.038 11.038C8.54794 13.528 6.57299 16.4842 5.22597 19.7378C3.87895 22.9914 3.18627 26.4786 3.1875 30C3.18627 33.5214 3.87895 37.0086 5.22597 40.2622C6.57299 43.5158 8.54794 46.472 11.038 48.9621C13.528 51.4521 16.4842 53.427 19.7378 54.774C22.9914 56.1211 26.4786 56.8137 30 56.8125C33.5214 56.8137 37.0086 56.1211 40.2622 54.774C43.5158 53.427 46.472 51.4521 48.9621 48.9621C51.4521 46.472 53.427 43.5158 54.774 40.2622C56.1211 37.0086 56.8137 33.5214 56.8125 30C56.8137 26.4786 56.1211 22.9914 54.774 19.7378C53.427 16.4842 51.4521 13.528 48.9621 11.038C46.472 8.54794 43.5158 6.57299 40.2622 5.22597C37.0086 3.87895 33.5214 3.18627 30 3.1875ZM30 49.3125C29.1982 49.3144 28.4139 49.0782 27.7464 48.6339C27.079 48.1896 26.5584 47.5571 26.2507 46.8167C25.943 46.0763 25.862 45.2612 26.018 44.4747C26.174 43.6882 26.5599 42.9657 27.1269 42.3987C27.6938 41.8318 28.4163 41.4459 29.2028 41.2899C29.9893 41.1339 30.8044 41.2149 31.5448 41.5226C32.2853 41.8303 32.9177 42.3508 33.362 43.0183C33.8063 43.6858 34.0425 44.4701 34.0406 45.2719C34.0382 46.3428 33.6117 47.3691 32.8544 48.1263C32.0972 48.8835 31.0709 49.31 30 49.3125ZM34.9031 15.9375L33.375 36.5625C33.3655 36.7051 33.302 36.8387 33.1976 36.9362C33.0931 37.0337 32.9554 37.0878 32.8125 37.0875H27.1875C27.0446 37.0878 26.9069 37.0337 26.8024 36.9362C26.698 36.8387 26.6345 36.7051 26.625 36.5625L25.0969 15.9375C25.0555 15.2681 25.1516 14.5973 25.3792 13.9665C25.6069 13.3356 25.9613 12.7581 26.4207 12.2694C26.8801 11.7808 27.4346 11.3914 28.0502 11.1252C28.6658 10.859 29.3293 10.7217 30 10.7217C30.6707 10.7217 31.3342 10.859 31.9498 11.1252C32.5654 11.3914 33.12 11.7808 33.5793 12.2694C34.0387 12.7581 34.3931 13.3356 34.6208 13.9665C34.8485 14.5973 34.9445 15.2681 34.9031 15.9375Z" fill="#E91D1D"/>
</svg>
