<svg width="30" height="30" viewBox="0 0 30 30" fill="none" xmlns="http://www.w3.org/2000/svg">
<g clip-path="url(#clip0_58_453)">
<path d="M15 30C23.2843 30 30 23.2843 30 15C30 6.71573 23.2843 0 15 0C6.71573 0 0 6.71573 0 15C0 23.2843 6.71573 30 15 30Z" fill="#4CAF50"/>
<path d="M14.9999 7.10523C13.5455 7.10578 12.1194 7.50811 10.8792 8.26781C9.63892 9.02752 8.63263 10.1151 7.97135 11.4105C7.31007 12.7059 7.01949 14.1588 7.13168 15.6089C7.24387 17.059 7.75446 18.45 8.60713 19.6283L7.62029 22.5611L10.6578 21.5901C11.6854 22.2679 12.8572 22.6961 14.0798 22.8403C15.3023 22.9846 16.5416 22.8409 17.6987 22.4209C18.8558 22.0008 19.8987 21.316 20.744 20.4211C21.5893 19.5262 22.2136 18.4461 22.5671 17.2669C22.9206 16.0877 22.9934 14.8422 22.7798 13.6299C22.5662 12.4176 22.072 11.272 21.3368 10.2847C20.6015 9.29737 19.6456 8.49567 18.5453 7.94361C17.445 7.39156 16.2309 7.10445 14.9999 7.10523ZM19.1959 18.2704L18.3552 19.1111C17.4709 19.9954 15.1262 19.0223 13.0479 16.9401C10.9696 14.8579 10.0381 12.519 10.8788 11.6447L11.7196 10.8039C11.8824 10.6543 12.0955 10.5712 12.3167 10.5712C12.5378 10.5712 12.7509 10.6543 12.9137 10.8039L14.1532 12.0394C14.2543 12.1377 14.3284 12.2603 14.3685 12.3954C14.4086 12.5305 14.4133 12.6737 14.3822 12.8112C14.3511 12.9487 14.2852 13.0759 14.1909 13.1806C14.0965 13.2853 13.9768 13.364 13.8433 13.4092C13.6463 13.4721 13.4812 13.6086 13.3823 13.7902C13.2834 13.9718 13.2584 14.1846 13.3124 14.3842C13.5334 15.3118 14.7275 16.4625 15.6137 16.6835C15.8123 16.7252 16.0192 16.6938 16.1965 16.5952C16.3738 16.4966 16.5095 16.3373 16.5788 16.1467C16.6235 16.0112 16.7025 15.8897 16.8082 15.7938C16.9139 15.698 17.0426 15.6313 17.1818 15.6001C17.321 15.5688 17.4659 15.5742 17.6023 15.6157C17.7388 15.6572 17.8622 15.7334 17.9604 15.8368L19.1979 17.0763C19.3473 17.2393 19.43 17.4526 19.4296 17.6737C19.4293 17.8948 19.3459 18.1078 19.1959 18.2704Z" fill="white"/>
</g>
<defs>
<clipPath id="clip0_58_453">
<rect width="30" height="30" fill="white"/>
</clipPath>
</defs>
</svg>
